<svg preserveAspectRatio="xMidYMid meet" width="100%" height="100%" overflow="visible" style="display: block;" viewBox="0 0 36 12" fill="none" xmlns="http://www.w3.org/2000/svg">
<path id="Vector" d="M7.2 2.4H9.088C9.371 2.4 9.6 2.62933 9.6 2.912V4.28767C9.6 4.57067 9.37067 4.79967 9.088 4.79967H7.71233C7.42933 4.79967 7.20033 5.029 7.20033 5.31167V6.68733C7.20033 6.97033 6.971 7.19933 6.68833 7.19933H5.31267C5.177 7.19933 5.04667 7.25333 4.95067 7.34933C4.85467 7.44533 4.80067 7.57567 4.80067 7.71133V9.087C4.80067 9.37 5.03 9.599 5.31267 9.599H9.08833C9.37133 9.599 9.60033 9.82833 9.60033 10.111V11.4867C9.60033 11.7697 9.371 11.9987 9.08833 11.9987H0.512C0.229 11.9987 0 11.7693 0 11.4867V10.111C0 9.828 0.229333 9.599 0.512 9.599H1.88767C2.17067 9.599 2.39967 9.36967 2.39967 9.087V7.71133C2.39967 7.42833 2.629 7.19933 2.91167 7.19933H4.28733C4.423 7.19933 4.55333 7.14533 4.64933 7.04933C4.74533 6.95333 4.79933 6.823 4.79933 6.68733V5.31167C4.79933 5.02867 4.57 4.79967 4.28733 4.79967H0.512C0.229 4.79967 0 4.57033 0 4.28767V2.912C0 2.629 0.229333 2.4 0.512 2.4H7.2ZM11.312 12H12.6877C12.9707 12 13.1997 11.7707 13.1997 11.488V10.1123C13.1997 9.82933 12.9703 9.60033 12.6877 9.60033H11.312C11.029 9.60033 10.8 9.82967 10.8 10.1123V11.488C10.8 11.771 11.0293 12 11.312 12ZM14.4 8.4V11.488C14.4 11.771 14.6293 12 14.912 12H16.2877C16.5707 12 16.7997 11.7707 16.7997 11.488V5.31233C16.7997 5.02933 16.5703 4.80033 16.2877 4.80033H14.912C14.629 4.80033 14.4 5.02967 14.4 5.31233V8.40033V8.4ZM33.75 4.95C33.846 4.854 33.9763 4.8 34.112 4.8H35.4877C35.7707 4.8 35.9997 4.57067 35.9997 4.288V2.91233C35.9997 2.62933 35.7703 2.40033 35.4877 2.40033H34.112C33.829 2.40033 33.6 2.62967 33.6 2.91233V4.288C33.6 4.42367 33.546 4.554 33.45 4.65C33.354 4.746 33.2237 4.8 33.088 4.8H31.7123C31.4293 4.8 31.2003 4.57067 31.2003 4.288V0.512C31.2003 0.229 30.971 0 30.6883 0H29.3127C29.0297 0 28.8007 0.229333 28.8007 0.512V11.4877C28.8007 11.7707 29.03 11.9997 29.3127 11.9997H30.6883C30.9713 11.9997 31.2003 11.7703 31.2003 11.4877V7.712C31.2003 7.429 31.4297 7.2 31.7123 7.2H33.088C33.2237 7.2 33.354 7.254 33.45 7.35C33.546 7.446 33.6 7.57633 33.6 7.712V11.4877C33.6 11.7707 33.8293 11.9997 34.112 11.9997H35.4877C35.7707 11.9997 35.9997 11.7703 35.9997 11.4877V7.712C35.9997 7.429 35.7703 7.2 35.4877 7.2H34.112C33.9763 7.2 33.846 7.146 33.75 7.05C33.654 6.954 33.6 6.82367 33.6 6.688V5.31233C33.6 5.17667 33.654 5.04633 33.75 4.95033V4.95ZM14.912 2.4H16.2877C16.5707 2.4 16.7997 2.17067 16.7997 1.888V0.512C16.7997 0.229 16.5703 0 16.2877 0H14.912C14.629 0 14.4 0.229333 14.4 0.512V1.88767C14.4 2.17067 14.6293 2.39967 14.912 2.39967V2.4ZM25.2 4.288V2.91233C25.2 2.62933 24.9707 2.40033 24.688 2.40033H20.9123C20.6293 2.40033 20.4003 2.62967 20.4003 2.91233V4.288C20.4003 4.42367 20.3463 4.554 20.2503 4.65C20.1543 4.746 20.024 4.8 19.8883 4.8H18.5127C18.2297 4.8 18.0007 5.02933 18.0007 5.312V11.4877C18.0007 11.7707 18.23 11.9997 18.5127 11.9997H19.8883C20.1713 11.9997 20.4003 11.7703 20.4003 11.4877V5.312C20.4003 5.17633 20.4543 5.046 20.5503 4.95C20.6463 4.854 20.7767 4.8 20.9123 4.8H24.688C24.8237 4.8 24.954 4.854 25.05 4.95C25.146 5.046 25.2 5.17633 25.2 5.312V11.4877C25.2 11.7707 25.4293 11.9997 25.712 11.9997H27.0877C27.3707 11.9997 27.5997 11.7703 27.5997 11.4877V5.312C27.5997 5.029 27.3703 4.8 27.0877 4.8H25.712C25.5763 4.8 25.446 4.746 25.35 4.65C25.254 4.554 25.2 4.42367 25.2 4.288Z" fill="var(--fill-0, black)"/>
</svg>
